<?xml version="1.0" encoding="UTF-8" standalone="no"?>
<svg
   version="1.1"
   id="Layer_1"
   x="0px"
   y="0px"
   width="100%"
   viewBox="0 0 1024 1024"
   enable-background="new 0 0 1024 1024"
   xml:space="preserve"
   sodipodi:docname="logo.svg"
   inkscape:version="1.3.2 (091e20ef0f, 2023-11-25)"
   xmlns:inkscape="http://www.inkscape.org/namespaces/inkscape"
   xmlns:sodipodi="http://sodipodi.sourceforge.net/DTD/sodipodi-0.dtd"
   xmlns="http://www.w3.org/2000/svg"
   xmlns:svg="http://www.w3.org/2000/svg"><defs
   id="defs3543"><inkscape:path-effect
     effect="fillet_chamfer"
     id="path-effect1"
     is_visible="true"
     lpeversion="1"
     nodesatellites_param="F,0,0,1,0,0,0,1 @ F,0,0,1,0,0,0,1 @ F,0,0,1,0,0,0,1 @ F,0,0,1,0,0,0,1 @ F,0,0,1,0,0,0,1 @ F,0,0,1,0,0,0,1 @ F,0,0,1,0,0,0,1 @ F,0,0,1,0,0,0,1 @ F,0,0,1,0,0,0,1 @ F,0,0,1,0,0,0,1 @ F,0,0,1,0,0,0,1 @ F,0,0,1,0,0,0,1 @ F,0,0,1,0,0,0,1 @ F,0,0,1,0,0,0,1 @ F,0,0,1,0,0,0,1 @ F,0,0,1,0,0,0,1 @ F,0,0,1,0,0,0,1 @ F,0,0,1,0,0,0,1 @ F,0,0,1,0,0,0,1 @ F,0,0,1,0,0,0,1 @ F,0,0,1,0,0,0,1 @ F,0,0,1,0,0,0,1 @ F,0,0,1,0,0,0,1 @ F,0,0,1,0,0,0,1 @ F,0,0,1,0,0,0,1 @ F,0,0,1,0,0,0,1 @ F,0,0,1,0,0,0,1 @ F,0,0,1,0,0,0,1 @ F,0,0,1,0,0,0,1 @ F,0,0,1,0,0,0,1 @ F,0,0,1,0,0,0,1 @ F,0,0,1,0,0,0,1 @ F,0,0,1,0,0,0,1 @ F,0,0,1,0,0,0,1 @ F,0,0,1,0,0,0,1 @ F,0,0,1,0,0,0,1 @ F,0,0,1,0,0,0,1 @ F,0,0,1,0,0,0,1 @ F,0,0,1,0,0,0,1 @ F,0,0,1,0,0,0,1 | F,0,0,1,0,0,0,1 @ F,0,0,1,0,0,0,1 @ F,0,0,1,0,0,0,1 @ F,0,0,1,0,0,0,1 @ F,0,0,1,0,0,0,1 @ F,0,0,1,0,0,0,1 @ F,0,0,1,0,0,0,1 @ F,0,0,1,0,0,0,1"
     radius="0"
     unit="px"
     method="auto"
     mode="F"
     chamfer_steps="1"
     flexible="false"
     use_knot_distance="true"
     apply_no_radius="true"
     apply_with_radius="true"
     only_selected="false"
     hide_knots="false" /><linearGradient
     id="linearGradient17346"
     inkscape:swatch="solid"><stop
       style="stop-color:#000000;stop-opacity:1;"
       offset="0"
       id="stop17344" /></linearGradient></defs><sodipodi:namedview
   id="namedview3541"
   pagecolor="#363b42"
   bordercolor="#666666"
   borderopacity="1.0"
   inkscape:pageshadow="2"
   inkscape:pageopacity="0"
   inkscape:pagecheckerboard="false"
   showgrid="false"
   inkscape:zoom="0.4502734"
   inkscape:cx="-102.16015"
   inkscape:cy="800.62468"
   inkscape:window-width="1714"
   inkscape:window-height="1363"
   inkscape:window-x="1722"
   inkscape:window-y="36"
   inkscape:window-maximized="0"
   inkscape:current-layer="Layer_1"
   inkscape:showpageshadow="0"
   inkscape:deskcolor="#505050"
   inkscape:lockguides="false" />
<path
   id="path3526"
   style="fill:#9a769c;fill-opacity:1"
   d="m 587.51562,342.60352 c -3.29706,0.15393 -6.5643,0.62732 -9.73242,1.41796 -21.99039,5.48795 -37.58533,26.88425 -37.6875,51.82422 -0.0203,4.93604 -1.52826,7.35417 -6.20508,9.08203 -24.89398,9.19705 -46.09086,24.37874 -66.04687,41.51172 -14.66045,12.58654 -27.68828,27.02067 -43.19531,38.62696 -25.15824,18.82981 -54.29229,28.64338 -84.24414,36.48242 -6.43182,1.68341 -12.93101,3.12085 -19.33203,4.91015 -3.46155,0.96759 -6.96829,2.51917 -6.09766,7.10547 0.78888,4.1557 14.22435,2.65173 17.76014,2.62713 2.16595,-0.0149 -6.01204,3.15475 -3.84596,3.15475 13.26621,-1.8e-4 26.26419,0.81779 40.15418,-1.16469 -0.926,1.50103 -1.98948,2.21771 -3.16016,2.61914 -10.70281,3.67029 -21.44832,7.2176 -32.13086,10.94531 -5.22097,1.82202 -7.64096,5.37061 -6.61914,9.09961 1.03674,3.7835 4.77607,5.27881 10.42188,4.15821 0.48899,-0.097 0.96709,-0.25044 1.44726,-0.38868 22.0629,-6.35174 44.26291,-12.23249 66.15039,-19.19726 13.14419,-4.18256 26.1755,-8.72351 40.08204,-10.08985 25.96723,-2.55132 51.20424,-8.3371 75.36523,-18.36132 20.77565,-8.61965 37.78755,-21.60644 48.00195,-42.23438 1.06879,-2.15854 2.46185,-2.97271 4.8125,-3.58789 4.6627,-1.22027 8.76201,10.6523 12.98828,20.87109 l -0.17187,-0.0781 c -6.6672,8.74159 -18.5668,19.16331 -28.99609,25.88477 -21.66244,13.96089 -45.86206,21.15912 -71.14649,24.63281 -8.06231,1.10767 -12.32422,5.1694 -10.59766,14.9082 3.42954,19.34393 9.55564,38.05585 14.31446,57.09375 0.77067,3.08308 2.15361,6.05625 1.94922,9.50195 l 19.13867,-2.08203 c -2.2817,-0.53785 -3.98887,-1.94159 -4.54297,-4.06054 -2.35345,-9.00003 -4.61555,-18.02359 -6.98438,-27.01953 -2.49732,-9.48395 -5.1016,-18.94003 -7.59961,-28.42383 -0.63572,-2.41363 -1.50118,-5.03901 2.01954,-6.14844 5.34003,-1.0296 9.92312,-1.79632 14.49609,-2.61914 0.7058,-0.12698 1.32096,-0.1199 1.83203,-0.002 1.53322,0.35399 2.12734,1.69703 1.39453,3.34375 -6.51755,14.64587 0.15394,28.34454 2.75391,42.31835 1.03318,5.55292 2.52011,11.02076 3.6875,16.55079 0.41162,1.94992 1.95724,4.36293 -0.87305,5.54882 l 3.32227,-0.25 15.31445,0.42969 c -1.23171,-1.06319 -1.65598,-2.70328 -2.03516,-4.47461 -2.2612,-10.56406 -3.97271,-21.27072 -6.77734,-31.68554 -2.6872,-9.97861 -2.4798,-19.52622 0.34961,-29.38868 1.30322,-4.54287 3.45331,-6.98456 7.94141,-8.40625 15.04271,-4.76517 46.05218,-8.33555 62.57864,-21.82903 5.82432,-1.27876 28.92414,0.11441 36.84033,-5.52369 8.83221,-6.29052 27.75238,-44.03487 12.17227,-73.47655 -4.34405,-8.20887 -21.19351,-29.11758 -50.06195,-25.25471 -28.86844,3.86287 -29.38261,-6.04632 -31.63882,-11.08814 0.21439,-5.09257 -0.70462,-11.5645 -0.58188,-18.31811 0.12275,-6.75362 1.82728,-17.39394 5.73633,-22.47266 3.90905,-5.07872 7.82485,-7.92503 15.84509,-9.6594 l 6.6942,-1.01962 c 23.42509,-0.24344 32.40669,20.73626 26.35133,38.26691 -1.60065,4.63404 -0.57719,6.39866 3.84961,7.91602 25.99486,8.9099 23.66366,3.39314 48.98828,14.04883 2.51332,-0.40361 19.03125,8.50976 19.03125,8.50976 0,0 2.94794,0.6485 4.18946,-2.10547 1.30695,-2.89916 0.72558,-6.05288 -1.70508,-7.79687 -1.61353,-1.15771 -4.93524,-3.04746 -6.73438,-3.90234 -20.60526,-9.79106 -23.74532,-10.72613 -44.4082,-20.39454 -3.52655,-1.65008 -5.18017,-3.73807 -5.43164,-7.88085 -1.79667,-29.59376 -26.31114,-44.0834 -49.39063,-43.00586 z m -49.99023,80.59765 c 0.19012,12.7253 1.49457,25.19605 8.36914,36.26953 6.48906,9.04989 6.48675,9.48771 -0.49805,17.68164 -12.01255,14.0923 -28.12788,21.61506 -45.04296,27.64454 -24.29865,8.66149 -49.5784,12.54819 -75.15235,15.07421 -8.437,0.83338 -16.79877,0.69611 -25.32031,0.45508 10.81545,-8.38049 22.5274,-15.43902 32.85547,-24.55859 36.52457,-30.7303 21.61423,-18.66717 44.0664,-36.70117 18.42728,-15.06439 28.52382,-26.14555 60.72266,-35.86524 z"
   sodipodi:nodetypes="csssssssscccccssssssssccssssccssscsssssccccsssczzzcssccscccsscscscccssccccc" /><path
   id="path3528"
   style="fill:#c1956e;fill-opacity:1"
   d="m 524.72327,615.8319 -11.4894,-0.35571 -8.53016,-0.15018 c 2.10619,0.0264 -7.46733,0.60777 -7.67394,0.63085 -1.80923,0.20211 -4.75188,0.51116 -7.02573,0.95253 l -6.89085,1.37921 c -0.93942,0.28198 -5.15279,0.89526 -5.94496,1.06433 -20.77917,4.43542 -40.45019,11.54522 -59.93581,19.79746 -30.70502,13.00358 -61.54489,14.50895 -92.73633,1.78906 -2.20792,-0.90039 -5.09358,-1.00672 -8.79011,-0.16712 3.55291,10.07326 9.60712,16.56502 15.39113,25.04865 1.23779,2.01617 3.39297,2.29902 5.28375,2.70832 22.11159,4.78654 44.17112,5.62748 66.19336,-0.55664 17.19332,-4.82807 33.57636,-11.89894 50.21484,-18.23243 30.22974,-11.50704 61.05933,-14.50767 92.63672,-7.20898 19.04598,4.40228 36.98893,12.22255 55.08594,19.36914 25.32464,10.00083 51.01776,13.31108 77.7832,7.44141 4.53442,-0.99445 8.86758,-1.68103 11.47055,-5.60412 3.96073,-5.96947 8.11465,-12.56325 11.58423,-18.84107 0.85443,-1.54583 1.16501,-3.42836 0.38272,-5.53723 -2.19513,-1.65765 -4.08423,-0.21602 -5.99609,0.63671 -19.83828,8.84794 -40.33171,11.90705 -61.8711,7.78516 -14.67727,-2.80871 -28.46028,-8.11494 -42.17187,-13.74414 -20.88442,-8.57395 -35.35004,-14.57394 -57.90798,-16.7942 -1.40624,-0.13843 -5.6474,-1.13128 -9.06211,-1.41101 z"
   sodipodi:nodetypes="cccscccssccssssssssccsssc" />

<path
   fill="#000000"
   opacity="1"
   stroke="none"
   d="m 439.96161,674.89514 c 18.39654,-7.55249 36.59173,-14.25671 56.20645,-16.47534 21.74814,-2.4599 42.85294,-0.25226 63.33865,7.36444 16.53785,6.14893 32.87476,12.84906 49.48548,18.78803 17.95202,6.41839 34.81431,7.09123 53.49638,5.59623 0.63086,-0.0505 4.9556,-0.23425 5.9379,-0.17539 -1.07019,3.21241 -4.53446,5.00084 -6.68112,6.92369 -3.22065,2.88471 -7.36865,6.17919 -10.50159,9.14745 -10.10723,9.57593 -22.07414,7.18782 -34.32402,4.63997 -17.90753,-3.72442 -34.34509,-11.58026 -51.2674,-18.0531 -19.93042,-7.62335 -40.19104,-12.92797 -61.82129,-11.37481 -19.17807,1.37701 -37.16729,6.93109 -54.77423,14.31427 -15.79135,6.62182 -31.43655,13.78766 -48.66082,16.18249 -6.31302,0.87775 -16.42636,1.73721 -22.74893,1.7579 -4.44274,-4.76094 -26.15269,-18.12582 -25.69455,-22.94637 2.78528,0 7.81949,-0.14446 10.70422,0.13593 25.71112,2.49933 49.31283,-3.91285 72.76166,-14.0478 1.37442,-0.59406 2.79003,-1.09271 4.54321,-1.77759 z"
   id="path3530"
   style="fill:#baa3bc;fill-opacity:1"
   sodipodi:nodetypes="csssscssssssssccsc" />
<path
   fill="#000000"
   opacity="1"
   stroke="none"
   d="m 425.79663,724.7077 c 16.80786,-5.58392 32.15933,-13.81561 48.81937,-18.74835 29.53701,-8.74548 58.37301,-7.07196 86.87179,4.51678 16.32495,6.63849 31.69,14.05766 48.92627,18.21952 0.7804,0.18842 3.2102,1.70718 3.97033,1.98183 -5.21334,6.10415 -18.5973,9.54378 -25.36609,12.17449 -3.87396,1.50079 -8.27532,0.40133 -11.98931,-1.16563 -11.6524,-4.91614 -23.30359,-9.81592 -35.52301,-13.26379 -23.73706,-6.69764 -47.06003,-5.11646 -70.08215,3.12878 -9.09015,3.25562 -17.97696,7.02789 -26.62384,11.3446 -1.48752,0.74256 -6.25381,3.75604 -8.08416,3.18664 -8.65712,-4.05182 -21.04392,-7.60538 -31.11562,-15.0705 6.15222,-1.69714 14.14002,-4.65178 20.19642,-6.30437 z"
   id="path3532"
   style="fill:#dbcdfc;fill-opacity:1"
   sodipodi:nodetypes="cssscsssssccc" />

<path
   fill="#000000"
   opacity="1"
   stroke="none"
   d="m 470.38388,754.14792 c 14.97839,-12.77435 68.1393,-13.01791 82.80349,-0.89071 -4.74874,3.047 -42.95949,10.42006 -82.80349,0.89071 z"
   id="path3536"
   style="fill:#fbfcfc;fill-opacity:1;stroke:none;stroke-opacity:1"
   sodipodi:nodetypes="ccc" />
<path
   fill="#000000"
   opacity="1"
   stroke="none"
   d="m 607.19633,378.64081 c 1.70023,2.08734 1.40781,4.57195 -0.13125,6.72809 -1.53906,2.15613 -4.36429,3.76674 -7.46217,3.06309 -3.45519,-0.73271 -5.94586,-2.71624 -7.2181,-5.89337 -0.46485,-1.1338 -0.007,-3.32597 0.38951,-4.11202 1.66991,-3.31293 4.6665,-4.09402 6.85418,-4.21238 2.88577,-0.15612 5.03887,1.32184 7.56783,4.42659 z"
   id="path3538"
   sodipodi:nodetypes="sssssss"
   style="fill:#cb657b;fill-opacity:1" />
</svg>
